# Blender v3.4.1 OBJ File: 'February2024_Ninja_Assets_Export.blend'
# www.blender.org
mtllib Ninja_Katana.mtl
o Ninja_Katana
v -0.012189 0.212721 -0.000000
v 0.019998 -0.248900 0.037718
v -0.011061 -0.253568 0.011540
v -0.070252 0.221257 0.011540
v -0.039034 0.222893 0.037718
v -0.011061 -0.253568 -0.011540
v 0.019998 -0.248900 -0.037718
v -0.039034 0.222893 -0.037718
v -0.070252 0.221257 -0.011540
v 0.096836 -0.237349 0.011540
v 0.065777 -0.242018 0.037718
v 0.006979 0.225304 0.037718
v 0.038197 0.226940 0.011540
v 0.065777 -0.242018 -0.037718
v 0.096836 -0.237349 -0.011540
v 0.038197 0.226940 -0.011540
v 0.006979 0.225304 -0.037718
v -0.015412 0.272649 -0.000000
v -0.124606 0.237025 -0.033079
v -0.072959 0.239663 -0.076804
v -0.072959 0.239663 0.076804
v -0.124606 0.237025 0.033079
v 0.045358 0.245707 0.076804
v 0.045358 0.245707 -0.076804
v 0.097005 0.248345 -0.033079
v 0.097005 0.248345 0.033079
v 0.087535 0.222283 0.029842
v 0.087535 0.222283 -0.029842
v 0.040941 0.219903 0.069290
v -0.065800 0.214451 0.069290
v -0.112393 0.212071 0.029842
v -0.112393 0.212071 -0.029842
v -0.065800 0.214451 -0.069290
v 0.040941 0.219903 -0.069290
v -0.068543 0.265467 0.069290
v -0.115136 0.263087 0.029842
v -0.115136 0.263087 -0.029842
v 0.084792 0.273299 0.029842
v 0.084792 0.273299 -0.029842
v 0.038198 0.270919 0.069290
v -0.068543 0.265467 -0.069290
v 0.038198 0.270919 -0.069290
v 0.047465 -0.265462 0.000000
v 0.061808 -0.257875 0.026053
v 0.030187 -0.262629 0.026053
v 0.083310 -0.254643 0.000000
v 0.030187 -0.262629 -0.026053
v 0.061808 -0.257875 -0.026053
v 0.008783 -0.265846 -0.000000
v -0.002467 -0.132673 0.037718
v -0.031925 0.102107 0.037718
v -0.062984 0.097438 0.011540
v -0.051387 -0.020423 0.011540
v -0.033526 -0.137342 0.011540
v -0.031925 0.102107 -0.037718
v -0.002467 -0.132673 -0.037718
v -0.033526 -0.137342 -0.011540
v -0.051387 -0.020423 -0.011540
v -0.062984 0.097438 -0.011540
v 0.044914 0.113657 -0.011540
v 0.056510 -0.004204 -0.011540
v 0.074371 -0.121123 -0.011540
v 0.025451 -0.008872 -0.037718
v 0.025451 -0.008872 0.037718
v 0.074371 -0.121123 0.011540
v 0.056510 -0.004204 0.011540
v 0.044914 0.113657 0.011540
v -0.037687 0.265815 0.009827
v 0.088974 1.259548 0.009827
v -0.037687 0.265815 -0.009827
v 0.088974 1.259548 -0.009827
v 0.041160 0.268927 0.009827
v 0.041160 0.268927 -0.009827
v 0.010636 1.271168 0.009827
v 0.132178 1.498379 0.009827
v 0.077709 1.485064 0.009827
v 0.110433 1.502658 0.009827
v 0.044870 1.425760 0.009827
v 0.021911 1.340747 0.009827
v 0.010636 1.271168 -0.009827
v 0.132178 1.498379 -0.009827
v 0.110433 1.502658 -0.009827
v 0.077709 1.485064 -0.009827
v 0.044870 1.425760 -0.009827
v 0.021911 1.340747 -0.009827
v -0.076168 0.264063 0.000000
v -0.027644 1.276610 0.000000
v 0.140294 1.536840 -0.000000
v 0.105519 1.541623 -0.000000
v 0.051034 1.513174 -0.000000
v 0.009056 1.440181 -0.000000
v -0.015973 1.348417 0.000000
v -0.043936 0.406628 0.009827
v -0.045888 0.548600 0.009827
v -0.043486 0.691600 0.009827
v -0.036677 0.835494 0.009827
v -0.025416 0.980145 0.009827
v -0.009658 1.125416 0.009827
v -0.009658 1.125416 -0.009827
v -0.025416 0.980145 -0.009827
v -0.036677 0.835493 -0.009827
v -0.043486 0.691600 -0.009827
v -0.045888 0.548600 -0.009827
v -0.043936 0.406628 -0.009827
v 0.068919 1.115892 -0.009827
v 0.053345 0.972722 -0.009827
v 0.042212 0.830176 -0.009827
v 0.035477 0.688390 -0.009827
v 0.033091 0.547498 -0.009827
v 0.035004 0.407634 -0.009827
v 0.068919 1.115892 0.009827
v 0.053345 0.972722 0.009827
v 0.042212 0.830176 0.009827
v 0.035477 0.688390 0.009827
v 0.033091 0.547498 0.009827
v 0.035004 0.407634 0.009827
v -0.048047 1.129834 0.000000
v -0.063888 0.983537 0.000000
v -0.075205 0.837857 0.000000
v -0.082043 0.692934 0.000000
v -0.084447 0.548905 0.000000
v -0.082470 0.405904 0.000000
v -0.018564 -0.015496 0.033690
v -0.018564 -0.015496 -0.033690
v 0.042107 -0.125966 -0.033697
v 0.012651 0.108786 -0.033697
v 0.012651 0.108786 0.033697
v 0.042107 -0.125966 0.033697
v -0.016532 -0.040603 0.037718
v 0.004531 -0.012017 0.037718
v -0.022789 0.009263 0.037718
v -0.039423 -0.018624 0.021624
v -0.022789 0.009263 -0.037718
v 0.004531 -0.012017 -0.037718
v -0.016532 -0.040603 -0.037718
v -0.039423 -0.018624 -0.021624
v 0.048082 -0.150472 -0.037718
v 0.018453 -0.129528 -0.037718
v 0.039516 -0.100942 -0.037718
v 0.062407 -0.122921 -0.021624
v -0.011004 0.105251 -0.037718
v 0.012371 0.134082 -0.037718
v 0.032950 0.111859 -0.021624
v 0.016316 0.083971 -0.037718
v 0.012371 0.134082 0.037718
v -0.011004 0.105251 0.037718
v 0.016316 0.083971 0.037718
v 0.032950 0.111859 0.021624
v 0.018453 -0.129528 0.037718
v 0.048082 -0.150472 0.037718
v 0.062407 -0.122921 0.021624
v 0.039516 -0.100942 0.037718
vt 0.397501 0.580255
vt 0.398807 0.560787
vt 0.394712 0.560317
vt 0.393395 0.579927
vt 0.429139 0.633148
vt 0.430641 0.653457
vt 0.439047 0.652310
vt 0.437562 0.632293
vt 0.439047 0.652310
vt 0.442570 0.685647
vt 0.442570 0.685647
vt 0.437562 0.632293
vt 0.430641 0.653457
vt 0.429139 0.633148
vt 0.443260 0.691023
vt 0.402338 0.721948
vt 0.400278 0.710037
vt 0.396202 0.710875
vt 0.398454 0.723734
vt 0.400278 0.710037
vt 0.402338 0.721948
vt 0.412010 0.737898
vt 0.408280 0.738355
vt 0.408981 0.732987
vt 0.411320 0.732522
vt 0.440231 0.686112
vt 0.436821 0.683482
vt 0.433588 0.675073
vt 0.431528 0.663162
vt 0.436821 0.683482
vt 0.440231 0.686112
vt 0.433588 0.675073
vt 0.431528 0.663162
vt 0.408981 0.732987
vt 0.405571 0.730357
vt 0.402599 0.734093
vt 0.399391 0.700332
vt 0.395284 0.700860
vt 0.411320 0.732522
vt 0.399391 0.700332
vt 0.405571 0.730357
vt 0.397889 0.680023
vt 0.393775 0.680408
vt 0.398807 0.560787
vt 0.397501 0.580255
vt 0.396647 0.599909
vt 0.392534 0.599724
vt 0.396254 0.619732
vt 0.392137 0.619689
vt 0.396326 0.639704
vt 0.392207 0.639804
vt 0.396870 0.659807
vt 0.392751 0.660050
vt 0.438451 0.514809
vt 0.437164 0.533986
vt 0.437164 0.533986
vt 0.438451 0.514809
vt 0.436324 0.553348
vt 0.436324 0.553348
vt 0.435939 0.572878
vt 0.435939 0.572878
vt 0.436012 0.592558
vt 0.436012 0.592558
vt 0.436551 0.612369
vt 0.436551 0.612369
vt 0.428751 0.533380
vt 0.430057 0.513912
vt 0.427897 0.553034
vt 0.427504 0.572857
vt 0.427576 0.592829
vt 0.428120 0.612932
vt 0.430057 0.513912
vt 0.428751 0.533380
vt 0.427897 0.553034
vt 0.427504 0.572857
vt 0.427576 0.592829
vt 0.428120 0.612932
vt 0.397889 0.680023
vt 0.396870 0.659807
vt 0.396326 0.639704
vt 0.396254 0.619732
vt 0.396647 0.599909
vt 0.060440 0.436216
vt 0.060440 0.435520
vt 0.060440 0.400651
vt 0.032048 0.384712
vt 0.032048 0.420419
vt 0.032048 0.420419
vt 0.032048 0.384712
vt 0.032048 0.379600
vt 0.032048 0.418627
vt 0.032048 0.418627
vt 0.032048 0.379600
vt 0.060440 0.400651
vt 0.060440 0.435520
vt 0.060440 0.436216
vt 0.060440 0.435047
vt 0.060440 0.332877
vt 0.060440 0.299325
vt 0.060440 0.297977
vt 0.081711 0.364831
vt 0.081711 0.331280
vt 0.081711 0.329932
vt 0.081711 0.329932
vt 0.081711 0.331280
vt 0.081711 0.364831
vt 0.032048 0.274076
vt 0.032048 0.272604
vt 0.032048 0.267605
vt 0.032048 0.268625
vt 0.032048 0.270435
vt 0.032048 0.266108
vt 0.426575 0.593850
vt 0.421219 0.593340
vt 0.422085 0.596161
vt 0.426916 0.596621
vt 0.421219 0.593340
vt 0.426575 0.593850
vt 0.426916 0.596621
vt 0.422085 0.596161
vt 0.438844 0.595019
vt 0.437986 0.597676
vt 0.438844 0.595019
vt 0.437986 0.597676
vt 0.444200 0.595529
vt 0.442818 0.598136
vt 0.444200 0.595529
vt 0.442818 0.598136
vt 0.443335 0.577082
vt 0.443335 0.577082
vt 0.444200 0.579904
vt 0.444200 0.579904
vt 0.422602 0.575108
vt 0.422602 0.575108
vt 0.421219 0.577715
vt 0.421219 0.577715
vt 0.438503 0.576622
vt 0.438844 0.579394
vt 0.438503 0.576622
vt 0.438844 0.579394
vt 0.427433 0.575568
vt 0.426575 0.578225
vt 0.427433 0.575568
vt 0.426575 0.578225
vt 0.433013 0.544371
vt 0.443335 0.545832
vt 0.443335 0.545832
vt 0.438503 0.545372
vt 0.427433 0.544318
vt 0.422602 0.543858
vt 0.422602 0.543858
vt 0.427433 0.544318
vt 0.438503 0.545372
vt 0.432406 0.613247
vt 0.422085 0.611786
vt 0.426916 0.612246
vt 0.422085 0.611786
vt 0.442818 0.613761
vt 0.442818 0.613761
vt 0.437986 0.613301
vt 0.426916 0.612246
vt 0.437986 0.613301
vt 0.032048 0.268963
vt 0.032048 0.265093
vt 0.032048 0.272604
vt 0.032048 0.274076
vt 0.032048 0.267605
vt 0.032048 0.268963
vt 0.032048 0.270435
vt 0.032048 0.266108
vt 0.032048 0.265215
vt 0.071397 0.411545
vt 0.071397 0.438347
vt 0.071397 0.444490
vt 0.071397 0.443582
vt 0.060440 0.368615
vt 0.060440 0.369963
vt 0.060440 0.403986
vt 0.081711 0.356359
vt 0.081711 0.362405
vt 0.081711 0.361497
vt 0.071397 0.443582
vt 0.071397 0.444490
vt 0.071397 0.438347
vt 0.071397 0.411545
vt 0.060440 0.403986
vt 0.060440 0.369962
vt 0.060440 0.368615
vt 0.071397 0.452813
vt 0.071397 0.479146
vt 0.081711 0.429272
vt 0.081711 0.427924
vt 0.081711 0.463668
vt 0.081711 0.361497
vt 0.081711 0.388075
vt 0.081711 0.396327
vt 0.081711 0.397235
vt 0.071397 0.375807
vt 0.071397 0.374459
vt 0.071397 0.408211
vt 0.071397 0.375807
vt 0.071397 0.374459
vt 0.071397 0.340908
vt 0.081711 0.402470
vt 0.081711 0.396327
vt 0.081711 0.397235
vt 0.081711 0.429272
vt 0.081711 0.427924
vt 0.081711 0.393901
vt 0.081711 0.364312
vt 0.081711 0.370657
vt 0.081711 0.356359
vt 0.071397 0.446397
vt 0.071397 0.446916
vt 0.032048 0.305598
vt 0.032048 0.305598
vt 0.032048 0.342450
vt 0.032048 0.342450
vt 0.032048 0.310710
vt 0.032048 0.310710
vt 0.032048 0.347562
vt 0.032048 0.347563
vt 0.081711 0.394420
vt 0.081711 0.364312
vt 0.081711 0.463668
vt 0.081711 0.388075
vt 0.071397 0.408211
vt 0.060440 0.299325
vt 0.060440 0.332877
vt 0.060440 0.297977
vt 0.071397 0.446397
vt 0.071397 0.446916
vt 0.081711 0.402470
vt 0.081711 0.370657
vt 0.060440 0.301312
vt 0.060440 0.336211
vt 0.071397 0.479146
vt 0.071397 0.452813
vt 0.071397 0.479618
vt 0.071397 0.479618
vt 0.060440 0.336211
vt 0.081711 0.362405
vt 0.060440 0.301312
vt 0.081711 0.394420
vt 0.081711 0.393901
vt 0.071397 0.340908
vt 0.060440 0.435047
vt 0.041319 0.356522
vt 0.041641 0.353311
vt 0.048278 0.359528
vt 0.043911 0.359114
vt 0.039669 0.364157
vt 0.040598 0.361007
vt 0.034425 0.358091
vt 0.038209 0.358448
vt 0.040598 0.361007
vt 0.039669 0.364157
vt 0.048278 0.359528
vt 0.043911 0.359114
vt 0.041641 0.353311
vt 0.041319 0.356522
vt 0.034425 0.358091
vt 0.038209 0.358448
vt 0.060832 0.332536
vt 0.062004 0.329413
vt 0.052666 0.333969
vt 0.057121 0.334467
vt 0.059303 0.340187
vt 0.059634 0.336973
vt 0.066520 0.335406
vt 0.062856 0.334994
vt 0.047866 0.385387
vt 0.043382 0.385035
vt 0.050748 0.391306
vt 0.050825 0.388077
vt 0.057235 0.386472
vt 0.053547 0.386191
vt 0.051991 0.380407
vt 0.051068 0.383560
vt 0.050825 0.388077
vt 0.050748 0.391306
vt 0.043382 0.385035
vt 0.047866 0.385387
vt 0.051991 0.380407
vt 0.051068 0.383560
vt 0.057235 0.386472
vt 0.053547 0.386191
vt 0.057121 0.334467
vt 0.052666 0.333969
vt 0.062004 0.329413
vt 0.060832 0.332536
vt 0.066520 0.335406
vt 0.062856 0.334994
vt 0.059303 0.340187
vt 0.059634 0.336973
vn -0.2469 -0.0110 -0.9690
vn 0.0000 -0.0000 -1.0000
vn 0.9840 -0.1780 0.0000
vn 0.0000 0.0000 1.0000
vn 0.9904 -0.1383 0.0000
vn 0.9785 -0.2065 0.0000
vn -0.2389 0.0649 -0.9689
vn -0.2389 0.0649 0.9689
vn 0.0392 0.2443 0.9689
vn -0.1197 0.2268 -0.9665
vn -0.2197 0.1243 -0.9676
vn -0.2433 0.0395 -0.9691
vn 0.0392 0.2443 -0.9689
vn -0.2433 0.0395 0.9691
vn -0.2197 0.1243 0.9676
vn -0.1197 0.2268 0.9665
vn -0.2441 0.0340 0.9692
vn -0.2469 -0.0110 0.9690
vn -0.2470 -0.0034 0.9690
vn -0.2469 0.0041 0.9690
vn -0.2465 0.0116 0.9691
vn -0.2459 0.0191 0.9691
vn -0.2451 0.0266 0.9691
vn 0.9990 0.0443 0.0000
vn 0.9999 0.0137 0.0000
vn 0.9999 -0.0169 0.0000
vn 0.9989 -0.0474 0.0000
vn 0.9970 -0.0779 0.0000
vn 0.9941 -0.1081 0.0000
vn -0.2441 0.0340 -0.9692
vn -0.2451 0.0266 -0.9691
vn -0.2459 0.0191 -0.9691
vn -0.2465 0.0116 -0.9691
vn -0.2469 0.0041 -0.9690
vn -0.2470 -0.0034 -0.9690
vn 0.3396 0.0201 0.9403
vn -0.3422 -0.0201 0.9394
vn -0.3438 -0.0268 0.9387
vn 0.9022 0.0708 -0.4256
vn 0.9042 0.0536 -0.4238
vn 0.9042 0.0536 0.4238
vn 0.9022 0.0708 0.4256
vn -0.9040 -0.0712 0.4215
vn -0.9048 -0.0532 0.4224
vn -0.9048 -0.0532 -0.4224
vn -0.9040 -0.0712 -0.4215
vn -0.3438 -0.0268 -0.9387
vn -0.3422 -0.0201 -0.9394
vn 0.3396 0.0201 -0.9403
vn -0.3392 -0.0587 -0.9389
vn -0.2704 -0.4164 -0.8680
vn -0.7542 -0.5290 -0.3889
vn 0.8914 0.1543 -0.4261
vn 0.8893 -0.2298 -0.3954
vn 0.3851 -0.2941 -0.8748
vn 0.3851 -0.2941 0.8748
vn 0.8893 -0.2298 0.3954
vn 0.8914 0.1543 0.4261
vn 0.3128 -0.8117 0.4932
vn 0.5849 -0.8111 0.0000
vn -0.2704 -0.4164 0.8680
vn -0.0475 -0.8709 0.4892
vn -0.3627 -0.0194 -0.9317
vn -0.9114 -0.0484 -0.4086
vn -0.6227 0.7293 -0.2834
vn -0.2535 0.7321 -0.6323
vn -0.9114 -0.0484 0.4086
vn -0.3627 -0.0194 0.9317
vn -0.2535 0.7321 0.6323
vn -0.6227 0.7293 0.2834
vn 0.3627 0.0194 0.9317
vn 0.1767 0.7545 0.6320
vn 0.3627 0.0194 -0.9317
vn 0.1767 0.7545 -0.6320
vn 0.9114 0.0484 -0.4086
vn 0.5435 0.7903 -0.2830
vn 0.9114 0.0484 0.4086
vn 0.5435 0.7903 0.2830
vn 0.6227 -0.7293 0.2834
vn 0.6227 -0.7293 -0.2834
vn -0.5435 -0.7903 -0.2830
vn -0.5435 -0.7903 0.2830
vn 0.2535 -0.7321 0.6323
vn 0.2535 -0.7321 -0.6323
vn -0.1767 -0.7545 -0.6320
vn -0.1767 -0.7545 0.6320
vn 0.0510 -0.9987 0.0000
vn -0.0510 0.9987 0.0000
vn -0.7542 -0.5290 0.3889
vn -0.2931 -0.9561 0.0000
vn 0.3128 -0.8117 -0.4932
vn -0.0475 -0.8709 -0.4892
vn 0.1518 -0.9884 -0.0000
vn 0.3328 0.0419 0.9421
vn 0.3341 0.0743 0.9396
vn 0.0409 0.0051 0.9992
vn 0.8973 0.1125 0.4268
vn 0.3269 0.1046 0.9393
vn 0.0406 0.0064 0.9992
vn -0.3392 -0.0587 0.9389
vn 0.0409 0.0051 -0.9992
vn 0.3341 0.0743 -0.9396
vn 0.3328 0.0419 -0.9421
vn 0.8973 0.1125 -0.4268
vn 0.3438 -0.0201 -0.9388
vn -0.3428 -0.0091 -0.9394
vn -0.0430 -0.0061 -0.9991
vn -0.8933 -0.1544 -0.4220
vn -0.8998 -0.1130 -0.4213
vn -0.8933 -0.1544 0.4220
vn -0.3341 -0.0761 0.9395
vn -0.0430 -0.0061 0.9991
vn -0.8998 -0.1130 0.4213
vn 0.5992 0.1041 -0.7938
vn 0.3423 0.0109 -0.9395
vn 0.3269 0.1046 -0.9393
vn 0.6073 0.0463 -0.7931
vn -0.6019 -0.0750 0.7950
vn 0.5992 0.1041 0.7938
vn -0.3428 -0.0091 0.9394
vn 0.6073 0.0463 0.7931
vn -0.3341 -0.0761 -0.9395
vn 0.3423 0.0109 0.9395
vn 0.3438 -0.0201 0.9388
vn 0.0406 0.0064 -0.9992
vn -0.6019 -0.0750 -0.7950
vn -0.3372 -0.0424 0.9405
vn -0.3372 -0.0424 -0.9405
vn 0.3361 0.0580 -0.9400
vn 0.3407 0.0271 -0.9398
vn 0.3407 0.0271 0.9398
vn 0.3361 0.0580 0.9400
usemtl ninja
s off
f 104/1/1 70/2/1 86/3/1 122/4/1
f 99/5/2 80/6/2 71/7/2 105/8/2
f 69/9/3 71/7/3 81/10/3 75/11/3
f 111/12/4 69/9/4 74/13/4 98/14/4
f 105/8/5 71/7/5 69/9/5 111/12/5
f 75/11/6 81/10/6 88/15/6
f 84/16/7 85/17/7 92/18/7 91/19/7
f 79/20/8 78/21/8 91/19/8 92/18/8
f 88/22/9 89/23/9 77/24/9 75/25/9
f 69/9/4 77/26/4 76/27/4
f 69/9/4 76/27/4 78/28/4
f 69/9/4 78/28/4 79/29/4
f 69/9/4 79/29/4 74/13/4
f 69/9/4 75/11/4 77/26/4
f 71/7/2 83/30/2 82/31/2
f 71/7/2 84/32/2 83/30/2
f 71/7/2 85/33/2 84/32/2
f 71/7/2 80/6/2 85/33/2
f 71/7/2 82/31/2 81/10/2
f 82/34/10 83/35/10 90/36/10 89/23/10
f 90/36/11 83/35/11 84/16/11 91/19/11
f 85/17/12 80/37/12 87/38/12 92/18/12
f 82/34/13 89/23/13 88/22/13 81/39/13
f 87/38/14 74/40/14 79/20/14 92/18/14
f 76/41/15 90/36/15 91/19/15 78/21/15
f 76/41/16 77/24/16 89/23/16 90/36/16
f 98/42/17 74/40/17 87/38/17 117/43/17
f 68/44/18 93/45/18 122/4/18 86/3/18
f 93/45/19 94/46/19 121/47/19 122/4/19
f 94/46/20 95/48/20 120/49/20 121/47/20
f 95/48/21 96/50/21 119/51/21 120/49/21
f 96/50/22 97/52/22 118/53/22 119/51/22
f 97/52/23 98/42/23 117/43/23 118/53/23
f 73/54/24 110/55/24 116/56/24 72/57/24
f 110/55/25 109/58/25 115/59/25 116/56/25
f 109/58/26 108/60/26 114/61/26 115/59/26
f 108/60/27 107/62/27 113/63/27 114/61/27
f 107/62/28 106/64/28 112/65/28 113/63/28
f 106/64/29 105/8/29 111/12/29 112/65/29
f 72/57/4 116/56/4 93/66/4 68/67/4
f 116/56/4 115/59/4 94/68/4 93/66/4
f 115/59/4 114/61/4 95/69/4 94/68/4
f 114/61/4 113/63/4 96/70/4 95/69/4
f 113/63/4 112/65/4 97/71/4 96/70/4
f 112/65/4 111/12/4 98/14/4 97/71/4
f 70/72/2 104/73/2 110/55/2 73/54/2
f 104/73/2 103/74/2 109/58/2 110/55/2
f 103/74/2 102/75/2 108/60/2 109/58/2
f 102/75/2 101/76/2 107/62/2 108/60/2
f 101/76/2 100/77/2 106/64/2 107/62/2
f 100/77/2 99/5/2 105/8/2 106/64/2
f 80/37/30 99/78/30 117/43/30 87/38/30
f 99/78/31 100/79/31 118/53/31 117/43/31
f 100/79/32 101/80/32 119/51/32 118/53/32
f 101/80/33 102/81/33 120/49/33 119/51/33
f 102/81/34 103/82/34 121/47/34 120/49/34
f 103/82/35 104/1/35 122/4/35 121/47/35
s 1
f 12/83/36 5/84/37 51/85/38
f 60/86/39 16/87/40 13/88/41 67/89/42
f 52/90/43 4/91/44 9/92/45 59/93/46
f 55/94/47 8/95/48 17/96/49
f 51/85/38 5/84/37 4/97/44
f 56/98/50 7/99/51 6/100/52
f 62/101/53 15/102/54 14/103/55
f 11/104/56 10/105/57 65/106/58
f 10/107/57 11/108/56 44/109/59 46/110/60
f 11/108/56 2/111/61 45/112/62 44/109/59
f 20/113/63 19/114/64 37/115/65 41/116/66
f 22/117/67 21/118/68 35/119/69 36/120/70
f 21/118/68 23/121/71 40/122/72 35/119/69
f 24/123/73 20/113/63 41/116/66 42/124/74
f 25/125/75 24/123/73 42/124/74 39/126/76
f 23/121/71 26/127/77 38/128/78 40/122/72
f 19/114/64 22/117/67 36/120/70 37/115/65
f 26/127/77 25/125/75 39/126/76 38/128/78
f 27/129/79 28/130/80 25/131/75 26/132/77
f 32/133/81 31/134/82 22/135/67 19/136/64
f 29/137/83 27/129/79 26/132/77 23/138/71
f 28/130/80 34/139/84 24/140/73 25/131/75
f 34/139/84 33/141/85 20/142/63 24/140/73
f 30/143/86 29/137/83 23/138/71 21/144/68
f 31/134/82 30/143/86 21/144/68 22/135/67
f 33/141/85 32/133/81 19/136/64 20/142/63
f 1/145/87 28/146/80 27/147/79
f 1/145/87 29/148/83 30/149/86
f 1/145/87 31/150/82 32/151/81
f 1/145/87 30/149/86 31/150/82
f 1/145/87 27/147/79 29/148/83
f 1/145/87 32/151/81 33/152/85
f 1/145/87 34/153/84 28/146/80
f 1/145/87 33/152/85 34/153/84
f 18/154/88 36/155/70 35/156/69
f 18/154/88 37/157/65 36/155/70
f 18/154/88 38/158/78 39/159/76
f 18/154/88 35/156/69 40/160/72
f 18/154/88 40/160/72 38/158/78
f 18/154/88 41/161/66 37/157/65
f 18/154/88 39/159/76 42/162/74
f 18/154/88 42/162/74 41/161/66
f 2/111/61 3/163/89 49/164/90 45/112/62
f 14/165/55 15/166/54 46/110/60 48/167/91
f 6/168/52 7/169/51 47/170/92 49/164/90
f 7/169/51 14/165/55 48/167/91 47/170/92
f 15/166/54 10/107/57 46/110/60
f 3/163/89 6/168/52 49/164/90
f 43/171/93 44/109/59 45/112/62
f 43/171/93 46/110/60 44/109/59
f 43/171/93 47/170/92 48/167/91
f 43/171/93 48/167/91 46/110/60
f 43/171/93 49/164/90 47/170/92
f 43/171/93 45/112/62 49/164/90
f 64/172/94 147/173/95 146/174/96 51/175/38
f 64/176/94 66/177/97 67/178/42
f 11/104/56 150/179/98 149/180/99 50/181/100
f 55/182/47 141/183/101 144/184/102 63/185/103
f 60/186/39 61/187/104 63/188/103
f 142/189/105 141/183/101 55/182/47 17/190/49
f 55/191/47 59/192/46 9/193/45
f 56/194/50 135/195/106 134/196/107 63/197/103
f 56/198/50 57/199/108 58/200/109
f 50/201/100 54/202/110 3/203/89
f 131/204/111 130/205/112 64/206/94 51/207/38
f 51/207/38 52/208/43 53/209/113
f 62/101/53 140/210/114 139/211/115 63/197/103
f 137/212/116 140/210/114 62/101/53 14/103/55
f 144/184/102 143/213/117 60/214/39 63/185/103
f 3/163/89 54/215/110 57/216/108 6/168/52
f 54/215/110 53/217/113 58/218/109 57/216/108
f 53/217/113 52/90/43 59/93/46 58/218/109
f 15/166/54 62/219/53 65/220/58 10/107/57
f 62/219/53 61/221/104 66/222/97 65/220/58
f 61/221/104 60/86/39 67/89/42 66/222/97
f 132/223/118 131/204/111 51/207/38 53/209/113
f 151/224/119 150/179/98 11/104/56 65/106/58
f 52/208/43 51/207/38 4/225/44
f 50/181/100 129/226/120 132/223/118 53/209/113
f 54/202/110 50/201/100 53/227/113
f 2/228/61 50/229/100 3/230/89
f 148/231/121 147/173/95 64/172/94 67/232/42
f 134/196/107 133/233/122 55/191/47 63/197/103
f 64/206/94 152/234/123 151/224/119 65/106/58
f 2/228/61 11/235/56 50/229/100
f 149/180/99 152/234/123 64/206/94 50/181/100
f 66/177/97 64/176/94 65/236/58
f 12/237/36 145/238/124 148/231/121 67/232/42
f 13/239/41 12/237/36 67/232/42
f 16/240/40 60/214/39 17/190/49
f 146/174/96 145/238/124 12/237/36 51/175/38
f 61/187/104 62/241/53 63/188/103
f 139/211/115 138/242/125 56/194/50 63/197/103
f 7/99/51 56/98/50 14/243/55
f 56/194/50 138/242/125 137/212/116 14/103/55
f 136/244/126 135/195/106 56/194/50 58/245/109
f 60/214/39 143/213/117 142/189/105 17/190/49
f 57/199/108 56/198/50 6/246/52
f 55/191/47 133/233/122 136/244/126 58/245/109
f 59/192/46 55/191/47 58/245/109
f 8/95/48 55/94/47 9/247/45
f 64/206/94 130/205/112 129/226/120 50/181/100
f 123/248/127 129/249/120 130/250/112
f 123/251/127 130/250/112 131/252/111
f 123/253/127 131/252/111 132/254/118
f 123/255/127 132/254/118 129/249/120
f 124/256/128 133/257/122 134/258/107
f 124/259/128 134/258/107 135/260/106
f 124/261/128 135/260/106 136/262/126
f 124/263/128 136/262/126 133/257/122
f 125/264/129 137/265/116 138/266/125
f 125/267/129 138/266/125 139/268/115
f 125/269/129 139/268/115 140/270/114
f 125/271/129 140/270/114 137/265/116
f 126/272/130 141/273/101 142/274/105
f 126/275/130 142/274/105 143/276/117
f 126/277/130 143/276/117 144/278/102
f 126/279/130 144/278/102 141/273/101
f 127/280/131 145/281/124 146/282/96
f 127/283/131 146/282/96 147/284/95
f 127/285/131 147/284/95 148/286/121
f 127/287/131 148/286/121 145/281/124
f 128/288/132 149/289/99 150/290/98
f 128/291/132 150/290/98 151/292/119
f 128/293/132 151/292/119 152/294/123
f 128/295/132 152/294/123 149/289/99
