# Blender v3.4.1 OBJ File: 'January2024_SpaceRanger_Assets_Export.blend'
# www.blender.org
mtllib SpaceRanger_Jetpack_WingRight.mtl
o SpaceRanger_Jetpack_WingRight
v -0.156952 -0.120443 0.033204
v -0.176153 0.172696 0.056183
v -0.156952 -0.120443 -0.024637
v -0.176157 0.172681 -0.047538
v -0.156952 -0.189048 0.004283
v -0.909223 -0.120443 -0.140211
v -0.909223 -0.120443 -0.121989
v -0.829448 0.166900 -0.108850
v -0.909223 -0.263946 -0.131100
v -0.829448 0.166900 -0.153350
v -0.518480 0.172465 0.052196
v -0.694666 0.195334 -0.117491
v -0.479852 0.172440 -0.043564
v -0.694666 0.196452 -0.162244
v -0.156952 0.068073 -0.024637
v -0.156952 0.068073 0.033204
v -0.909223 -0.014467 -0.121989
v -0.909223 -0.014467 -0.140211
v -0.509683 0.068070 0.031205
v -0.718492 0.068064 -0.108883
v -0.718492 0.068064 -0.153317
v -0.488550 0.068070 -0.022638
v -0.812994 -0.131143 -0.124191
v -0.823924 -0.120443 -0.116954
v -0.510048 -0.131143 0.018675
v -0.509883 -0.120443 0.031715
v -0.510048 -0.258596 0.004283
v -0.499116 -0.261903 0.004283
v -0.812994 -0.258596 -0.131100
v -0.823924 -0.263946 -0.131100
v -0.812994 -0.131143 -0.138009
v -0.823924 -0.120443 -0.145247
v -0.488350 -0.120443 -0.023148
v -0.510048 -0.131143 -0.010108
v -0.639952 0.195334 -0.113115
v -0.572950 0.172756 -0.161991
v -0.617863 0.068067 -0.104179
v -0.596730 0.068067 -0.158021
v -0.612555 -0.131143 -0.117704
v -0.618064 -0.120443 -0.103669
v -0.607297 -0.258596 -0.131100
v -0.596530 -0.120443 -0.158531
v -0.602039 -0.131143 -0.144497
v -0.166626 0.125395 -0.057591
v -0.166631 0.125468 0.066088
v -0.937612 0.028151 -0.097822
v -0.937613 0.028150 -0.164379
v -0.525932 0.124119 0.067809
v -0.720372 0.103256 -0.067119
v -0.720127 0.103320 -0.195110
v -0.472558 0.123116 -0.059132
v -0.619575 0.123325 -0.050840
v -0.566984 0.123906 -0.175391
v -0.637172 0.181838 -0.229261
v -0.667173 0.182117 -0.229325
v -0.683290 0.121598 -0.252526
v -0.620692 0.120519 -0.252526
v -0.612659 0.172786 -0.063758
v -0.718492 0.195334 -0.095495
v -0.718492 0.195334 -0.166706
v -0.615853 0.196294 -0.174512
v -0.620692 0.176695 -0.252526
v -0.683290 0.176695 -0.252526
v -0.627259 0.222050 -0.175850
v -0.684919 0.222166 -0.166875
v -0.644890 0.217573 -0.130932
v -0.684919 0.217573 -0.134133
v -0.642856 0.207699 -0.215905
v -0.664806 0.207903 -0.215952
v -0.156952 0.195334 0.050632
v -0.516051 0.195334 0.047428
v -0.156952 0.195334 -0.042066
v -0.482182 0.195334 -0.038861
v -0.624231 0.195334 -0.087956
v -0.590362 0.195334 -0.174245
v -0.470157 0.100262 -0.063893
v -0.138272 0.102983 -0.063237
v -0.138251 0.102963 0.071783
v -0.528254 0.101241 0.072612
v -0.578982 0.101519 -0.199912
v -0.637373 0.100714 -0.063318
vt 0.921250 0.603408
vt 0.921267 0.635105
vt 0.911708 0.635104
vt 0.901692 0.603408
vt 0.911708 0.635104
vt 0.901692 0.603408
vt 0.893587 0.603408
vt 0.893587 0.621227
vt 0.923277 0.635105
vt 0.923295 0.603408
vt 0.038525 0.403846
vt 0.038680 0.417263
vt 0.029544 0.413120
vt 0.020637 0.392901
vt 0.893587 0.603408
vt 0.893587 0.579279
vt 0.965061 0.591873
vt 0.965061 0.603408
vt 0.931528 0.603408
vt 0.932551 0.579623
vt 0.893587 0.621227
vt 0.038680 0.444346
vt 0.038680 0.444346
vt 0.029544 0.440203
vt 0.029544 0.440203
vt 0.038545 0.376772
vt 0.050167 0.376509
vt 0.048706 0.371635
vt 0.038680 0.371634
vt 0.045360 0.376392
vt 0.038525 0.376763
vt 0.038680 0.371634
vt 0.046964 0.371635
vt 0.020637 0.365818
vt 0.020637 0.365818
vt 0.022975 0.359608
vt 0.022975 0.359608
vt 0.965061 0.603408
vt 0.965061 0.635106
vt 0.965061 0.635106
vt 0.960710 0.990541
vt 0.981653 0.962164
vt 0.779647 0.866129
vt 0.759572 0.896554
vt 0.929344 0.371137
vt 0.920360 0.371060
vt 0.921964 0.366303
vt 0.930874 0.366303
vt 0.959919 0.444346
vt 0.959919 0.444346
vt 0.933138 0.444346
vt 0.930349 0.444346
vt 0.669434 0.404234
vt 0.666583 0.404281
vt 0.666809 0.408617
vt 0.668894 0.408583
vt 0.933573 0.603408
vt 0.933555 0.635105
vt 0.925167 0.371177
vt 0.934128 0.370994
vt 0.932614 0.366303
vt 0.923706 0.366303
vt 0.922772 0.648484
vt 0.922273 0.627054
vt 0.902729 0.627054
vt 0.902729 0.648484
vt 0.901692 0.579279
vt 0.931547 0.635105
vt 0.961456 0.376723
vt 0.959919 0.371636
vt 0.932614 0.371635
vt 0.934128 0.376326
vt 0.020637 0.419984
vt 0.020637 0.419984
vt 0.961458 0.376720
vt 0.929344 0.376469
vt 0.930874 0.371635
vt 0.959919 0.371636
vt 0.961458 0.403803
vt 0.961456 0.403806
vt 0.959919 0.417263
vt 0.959919 0.417263
vt 0.981612 0.962204
vt 0.960723 0.990559
vt 0.733977 0.884640
vt 0.743970 0.850301
vt 0.045360 0.403475
vt 0.046442 0.417263
vt 0.038680 0.417263
vt 0.038545 0.403855
vt 0.020637 0.392901
vt 0.029544 0.413120
vt 0.759572 0.849679
vt 0.779647 0.819254
vt 0.716843 0.790605
vt 0.697799 0.821129
vt 0.901692 0.572158
vt 0.901692 0.548029
vt 0.902729 0.548929
vt 0.902729 0.570359
vt 0.921774 0.564207
vt 0.931514 0.564207
vt 0.931528 0.566006
vt 0.921250 0.566006
vt 0.923295 0.566006
vt 0.933573 0.566006
vt 0.931514 0.564207
vt 0.922772 0.564207
vt 0.931514 0.548929
vt 0.931514 0.570359
vt 0.933573 0.572158
vt 0.932551 0.548373
vt 0.901692 0.572158
vt 0.902729 0.570359
vt 0.931514 0.570359
vt 0.931528 0.572158
vt 0.921774 0.648484
vt 0.902729 0.648484
vt 0.931514 0.620901
vt 0.931514 0.642332
vt 0.921774 0.642332
vt 0.922273 0.620901
vt 0.923295 0.572158
vt 0.922772 0.570359
vt 0.921774 0.570359
vt 0.921250 0.572158
vt 0.050167 0.403592
vt 0.041578 0.406518
vt 0.046733 0.406361
vt 0.743970 0.803426
vt 0.733977 0.837765
vt 0.671463 0.808872
vt 0.682179 0.773972
vt 0.931514 0.642332
vt 0.922772 0.642332
vt 0.930349 0.439014
vt 0.933138 0.439014
vt 0.924231 0.439014
vt 0.921442 0.439014
vt 0.933555 0.628953
vt 0.933573 0.597256
vt 0.923295 0.597256
vt 0.923277 0.628952
vt 0.931528 0.597256
vt 0.931547 0.628953
vt 0.921267 0.628952
vt 0.921250 0.597256
vt 0.046733 0.414547
vt 0.041578 0.414547
vt 0.663972 0.406691
vt 0.664897 0.411015
vt 0.045147 0.444346
vt 0.040642 0.444346
vt 0.046442 0.444346
vt 0.040642 0.444509
vt 0.047131 0.444486
vt 0.049231 0.444346
vt 0.042905 0.442420
vt 0.045376 0.442380
vt 0.046733 0.441630
vt 0.041578 0.441630
vt 0.668701 0.441493
vt 0.670375 0.442245
vt 0.664897 0.442265
vt 0.664897 0.441493
vt 0.668894 0.439833
vt 0.666809 0.439867
vt 0.663972 0.406503
vt 0.664897 0.410243
vt 0.671460 0.406665
vt 0.670375 0.410995
vt 0.669171 0.406503
vt 0.668701 0.410243
vt 0.049231 0.417263
vt 0.930149 0.413977
vt 0.958338 0.413948
vt 0.930349 0.417263
vt 0.958337 0.413948
vt 0.933329 0.413972
vt 0.933138 0.417263
vt 0.922392 0.408647
vt 0.930073 0.408645
vt 0.930349 0.411931
vt 0.921442 0.411931
vt 0.933406 0.408641
vt 0.925666 0.408642
vt 0.924231 0.411931
vt 0.933138 0.411931
vt 0.933931 0.406697
vt 0.959122 0.407087
vt 0.934128 0.403409
vt 0.959121 0.407100
vt 0.929536 0.406841
vt 0.929344 0.403552
vt 0.926153 0.401521
vt 0.933860 0.401365
vt 0.934128 0.398077
vt 0.925167 0.398260
vt 0.929615 0.401505
vt 0.921828 0.401437
vt 0.920360 0.398143
vt 0.929344 0.398220
vn -0.0586 -0.0036 0.9983
vn -0.0600 -0.0038 0.9982
vn 0.0011 -0.0366 0.9993
vn -0.0545 -0.0053 -0.9985
vn -0.0024 -0.1362 -0.9907
vn -0.0469 -0.0426 -0.9980
vn -0.0643 -0.0043 -0.9979
vn -0.0515 -0.0057 -0.9987
vn 0.0995 -0.5590 -0.8232
vn -0.1394 0.2688 0.9531
vn -0.1278 0.2701 0.9543
vn -0.2087 0.2604 0.9427
vn -1.0000 0.0000 0.0000
vn 0.0250 -0.2578 0.9659
vn 0.0101 -0.1293 0.9916
vn 0.0097 -0.1263 0.9919
vn -0.1225 0.9925 0.0026
vn -0.0968 0.9930 -0.0680
vn -0.5432 0.8396 -0.0000
vn 0.0526 -0.7023 -0.7100
vn 0.2355 -0.8059 -0.5432
vn 0.2453 -0.8060 -0.5387
vn 0.0686 -0.6875 -0.7230
vn -0.0643 -0.0043 0.9979
vn -0.0469 -0.0426 0.9980
vn -0.2755 -0.8034 0.5278
vn 0.0467 -0.7068 0.7058
vn 0.0633 -0.6917 0.7194
vn -0.2703 -0.8034 0.5305
vn -0.8322 -0.5544 0.0000
vn 1.0000 0.0000 0.0000
vn -0.0071 0.2298 -0.9732
vn -0.0023 0.2288 -0.9735
vn -0.0019 0.2414 -0.9704
vn -0.0083 0.2375 -0.9714
vn -0.2504 -0.8004 0.5447
vn -0.2579 -0.8006 0.5408
vn 0.0000 1.0000 -0.0000
vn 0.0061 0.4599 -0.8879
vn -0.0149 0.7849 -0.6194
vn -0.0140 0.7738 -0.6333
vn 0.0105 -0.1305 -0.9914
vn 0.0260 -0.2603 -0.9652
vn -0.1659 -0.1978 -0.9661
vn -0.0751 -0.1346 -0.9881
vn -0.0053 0.0014 -1.0000
vn 0.2600 -0.8010 -0.5393
vn 0.2527 -0.8008 -0.5430
vn -0.0155 -0.0791 -0.9967
vn 0.1078 -0.0790 -0.9910
vn -0.0294 -0.0807 -0.9963
vn -0.0049 0.0014 1.0000
vn 0.1078 -0.0790 0.9910
vn -0.0294 -0.0807 0.9963
vn 0.0018 -0.7660 -0.6428
vn -0.7887 0.6148 -0.0000
vn 0.0007 -0.7616 0.6480
vn 0.9801 0.1983 -0.0001
vn -0.0013 0.2296 0.9733
vn -0.0059 0.2315 0.9728
vn -0.0066 0.2430 0.9700
vn -0.0004 0.2410 0.9705
vn -0.0574 0.2770 0.9592
vn -0.2087 0.2604 -0.9427
vn 0.7575 0.2526 -0.6020
vn 0.7545 0.2574 -0.6037
vn 0.7556 0.2527 -0.6043
vn 0.7570 0.2532 -0.6024
vn 0.2971 -0.0740 0.9520
vn -0.2952 -0.7411 0.6031
vn -0.6776 -0.4305 0.5962
vn -0.7469 -0.2425 0.6191
vn -0.5059 -0.5630 0.6535
vn 0.3942 -0.8712 -0.2925
vn 0.1989 -0.8333 -0.5158
vn -0.3421 -0.1310 -0.9305
vn 0.1444 -0.4205 -0.8957
vn 0.2971 -0.0740 -0.9520
vn -0.7154 -0.1353 0.6855
vn -0.0159 -0.0797 0.9967
vn -0.8031 -0.0809 0.5903
vn -0.0339 -0.7175 0.6957
vn -0.0209 -0.9472 -0.3200
vn -0.7555 0.2577 0.6023
vn -0.7526 0.2624 0.6039
vn -0.7537 0.2575 0.6046
vn -0.7551 0.2581 0.6027
vn 0.8161 -0.0792 -0.5725
vn 0.1497 -0.6048 -0.7822
vn 0.0080 0.9967 -0.0814
vn 0.0037 1.0000 0.0030
vn 0.7812 0.0025 -0.6242
vn -0.7812 0.0025 0.6242
vn 0.8815 -0.4721 -0.0001
vn 0.0000 0.0000 -1.0000
vn -0.8640 0.2748 -0.4218
vn -0.9207 0.3456 -0.1812
vn -0.9145 0.3337 -0.2290
vn 0.8126 0.1908 -0.5507
vn 0.7836 0.0000 -0.6212
vn 0.8598 0.1318 -0.4933
vn -0.8867 0.0904 -0.4534
vn -0.9050 0.1401 -0.4016
vn -0.8830 0.0816 -0.4622
vn 0.0078 1.0000 0.0063
vn -0.0100 0.9999 0.0048
vn -0.0155 0.9945 -0.1036
vn 0.0115 0.9931 -0.1166
vn -0.0039 0.9759 -0.2184
vn 0.0052 0.9725 -0.2329
vn 0.0081 0.9930 0.1178
vn -0.0141 0.9920 -0.1257
vn -0.0066 0.9990 -0.0437
vn -0.9215 0.3873 0.0285
vn 0.8209 0.3726 -0.4328
vn 0.8355 0.4240 0.3496
vn -0.0628 0.6155 0.7857
vn 0.1496 -0.6047 0.7823
vn 0.8187 0.2347 -0.5241
vn -0.8417 0.0000 -0.5400
vn -0.0068 0.2211 0.9752
vn -0.0101 0.2257 0.9742
vn -0.0112 0.2220 -0.9750
vn -0.0079 0.2196 -0.9755
vn -0.7567 0.2364 0.6095
vn -0.7552 0.2493 0.6063
vn 0.7625 0.2307 -0.6044
vn -0.0015 0.2212 -0.9752
vn 0.0016 0.2251 -0.9743
vn 0.0024 0.2267 0.9740
vn -0.0006 0.2216 0.9751
vn 0.7581 0.2333 -0.6089
vn -0.7573 0.2483 0.6040
vn -0.7610 0.2346 0.6049
usemtl spaceranger
s 1
f 40/1/1 37/2/1 20/3/2 24/4/3
f 21/5/4 32/6/5 6/7/6 18/8/7
f 38/9/8 42/10/9 32/6/5 21/5/4
f 49/11/10 59/12/11 8/13/12 46/14/12
f 7/15/13 6/7/13 9/16/13
f 5/17/14 1/18/15 26/19/16 28/20/14
f 18/8/13 6/7/13 7/15/13 17/21/13
f 59/22/17 60/23/18 10/24/19 8/25/19
f 50/26/20 80/27/21 38/28/22 21/29/23
f 24/4/3 20/3/2 17/21/24 7/15/25
f 81/30/26 49/31/27 20/32/28 37/33/29
f 46/34/30 47/35/30 18/36/30 17/37/30
f 3/38/31 1/18/31 5/17/31
f 15/39/31 16/40/31 1/18/31 3/38/31
f 4/41/32 44/42/33 51/43/34 13/44/35
f 79/45/36 81/46/26 37/47/29 19/48/37
f 70/49/38 72/50/38 73/51/38 71/52/38
f 54/53/39 55/54/39 69/55/40 68/56/41
f 3/38/42 5/17/43 28/20/44 33/57/45
f 15/39/46 3/38/42 33/57/45 22/58/46
f 80/59/21 76/60/47 22/61/48 38/62/22
f 43/63/49 41/64/49 29/65/49 31/66/49
f 32/6/5 30/67/50 9/16/51 6/7/6
f 1/18/15 16/40/52 19/68/52 26/19/16
f 30/67/53 24/4/3 7/15/25 9/16/54
f 77/69/55 15/70/55 22/71/48 76/72/47
f 46/73/56 8/25/19 10/24/19 47/74/56
f 78/75/57 79/76/36 19/77/37 16/78/57
f 78/79/58 77/80/58 72/81/58 70/82/58
f 45/83/59 2/84/60 11/85/61 48/86/62
f 81/87/63 74/88/63 59/12/11 49/11/10
f 60/89/64 50/90/64 47/91/64 10/92/64
f 13/93/65 51/94/66 53/95/67 36/96/68
f 24/97/3 30/98/53 29/99/69 23/100/69
f 39/101/70 25/102/71 26/103/72 40/104/73
f 42/105/9 33/106/74 34/107/74 43/108/75
f 27/109/76 34/110/76 33/111/45 28/112/44
f 30/98/50 32/113/5 31/114/77 29/99/78
f 25/115/71 27/109/79 28/112/79 26/116/72
f 41/64/80 39/117/80 23/118/80 29/65/80
f 27/119/81 25/120/81 39/121/81 41/122/81
f 32/113/5 42/123/9 43/124/75 31/114/77
f 23/100/82 39/125/70 40/126/73 24/97/82
f 80/127/83 50/90/83 56/128/83 57/129/83
f 48/130/84 11/131/85 58/132/86 52/133/87
f 34/134/88 27/119/88 41/122/88 43/135/88
f 47/35/89 50/26/20 21/29/23 18/36/89
f 71/136/38 73/137/38 75/138/90 74/139/91
f 22/140/92 33/141/92 42/142/92 38/143/92
f 26/144/72 19/145/93 37/146/93 40/147/73
f 77/69/94 78/75/94 16/78/94 15/70/94
f 62/148/95 57/129/95 56/128/95 63/149/95
f 55/54/96 14/150/97 65/151/98 69/55/96
f 80/127/99 57/129/100 62/148/101
f 50/90/102 60/89/103 63/149/104
f 35/152/105 12/153/106 59/22/17 74/154/91
f 12/153/106 14/155/107 60/23/18 59/22/17
f 61/156/108 35/152/105 74/154/91 75/157/90
f 55/158/109 54/159/110 62/160/110 63/161/109
f 54/159/110 61/156/108 75/157/90 62/160/110
f 14/155/107 55/158/109 63/161/109 60/23/18
f 66/162/111 64/163/112 65/164/113 67/165/111
f 65/164/113 64/163/112 68/166/41 69/167/40
f 14/150/97 12/168/114 67/169/114 65/151/98
f 61/170/115 54/53/115 68/56/115 64/171/115
f 35/172/116 61/170/116 64/171/116 66/173/116
f 12/168/117 35/172/117 66/173/117 67/169/117
f 49/31/27 46/34/118 17/37/118 20/32/28
f 75/174/119 80/127/99 62/148/101
f 56/128/120 50/90/102 63/149/104
f 11/175/61 2/176/60 70/82/121 71/177/122
f 4/178/32 13/179/35 73/180/123 72/81/124
f 58/181/86 11/182/85 71/183/125 74/184/126
f 13/185/65 36/186/68 75/187/119 73/188/127
f 51/189/34 44/190/33 77/80/128 76/191/129
f 45/192/59 48/193/62 79/194/130 78/79/131
f 53/195/67 51/196/66 76/197/132 80/198/99
f 48/199/84 52/200/87 81/201/133 79/202/134
f 2/176/60 45/192/59 78/79/131 70/82/121
f 44/190/33 4/178/32 72/81/124 77/80/128
f 52/200/87 58/181/86 74/184/126 81/201/133
f 36/186/68 53/195/67 80/198/99 75/187/119
